HIERARCHY
ROOT reference
{
	OFFSET 0.000000 0.000000 0.000000
	CHANNELS 6 Xposition Yposition Zposition Xrotation Yrotation Zrotation
	JOINT root
	{
		OFFSET 0.000000 82.904800 0.000000
		CHANNELS 3 Xrotation Yrotation Zrotation
		JOINT Hips
		{
			OFFSET 0.000000 0.000000 0.000000
			CHANNELS 3 Xrotation Yrotation Zrotation
			JOINT Spine
			{
				OFFSET 0.016932 -0.108032 0.001284
				CHANNELS 3 Xrotation Yrotation Zrotation
				JOINT Spine1
				{
					OFFSET -4.618910 17.961395 0.713432
					CHANNELS 3 Xrotation Yrotation Zrotation
					JOINT Spine2
					{
						OFFSET -4.757320 17.939499 0.300453
						CHANNELS 3 Xrotation Yrotation Zrotation
						JOINT Neck
						{
							OFFSET -7.170800 17.004501 1.988230
							CHANNELS 3 Xrotation Yrotation Zrotation
							JOINT Head
							{
								OFFSET -6.262899 9.473190 2.006351
								CHANNELS 3 Xrotation Yrotation Zrotation
								End Site
								{
									OFFSET 0.000000 0.100006 0.000000
								}
							}
						}
						JOINT RightShoulder
						{
							OFFSET -9.377160 16.403107 -0.846155
							CHANNELS 3 Xrotation Yrotation Zrotation
							JOINT RightArm
							{
								OFFSET -11.510399 -3.083588 -10.798599
								CHANNELS 3 Xrotation Yrotation Zrotation
								JOINT RightForearm
								{
									OFFSET -26.150902 -12.812798 -4.077688
									CHANNELS 3 Xrotation Yrotation Zrotation
									JOINT RightHand
									{
										OFFSET -20.943703 1.342247 13.452102
										CHANNELS 3 Xrotation Yrotation Zrotation
										End Site
										{
											OFFSET 0.000000 0.099998 0.000000
										}
									}
								}
							}
						}
						JOINT LeftShoulder
						{
							OFFSET -4.977740 17.595505 4.829940
							CHANNELS 3 Xrotation Yrotation Zrotation
							JOINT LeftArm
							{
								OFFSET 11.050102 0.676697 11.663799
								CHANNELS 3 Xrotation Yrotation Zrotation
								JOINT LeftForearm
								{
									OFFSET 20.740200 -20.378296 4.385559
									CHANNELS 3 Xrotation Yrotation Zrotation
									JOINT LeftHand
									{
										OFFSET -18.917801 -11.810501 11.136904
										CHANNELS 3 Xrotation Yrotation Zrotation
										End Site
										{
											OFFSET 0.000000 0.099998 0.000000
										}
									}
								}
							}
						}
					}
				}
			}
			JOINT RightUpLeg
			{
				OFFSET -5.595931 -0.986786 -7.685750
				CHANNELS 3 Xrotation Yrotation Zrotation
				JOINT RightLeg
				{
					OFFSET -25.701000 -36.721001 4.269932
					CHANNELS 3 Xrotation Yrotation Zrotation
					JOINT RightFoot
					{
						OFFSET 18.240299 -36.082699 -7.803941
						CHANNELS 3 Xrotation Yrotation Zrotation
						JOINT RightToe
						{
							OFFSET -15.208798 -8.626870 4.290441
							CHANNELS 3 Xrotation Yrotation Zrotation
							End Site
							{
								OFFSET 0.000000 0.100000 0.000000
							}
						}
					}
				}
			}
			JOINT LeftUpLeg
			{
				OFFSET 5.595921 0.986786 7.685750
				CHANNELS 3 Xrotation Yrotation Zrotation
				JOINT LeftLeg
				{
					OFFSET 6.363112 -36.001301 26.279602
					CHANNELS 3 Xrotation Yrotation Zrotation
					JOINT LeftFoot
					{
						OFFSET 13.109002 -36.139099 14.754398
						CHANNELS 3 Xrotation Yrotation Zrotation
						JOINT LeftToe
						{
							OFFSET -5.371920 -10.759700 13.398102
							CHANNELS 3 Xrotation Yrotation Zrotation
							End Site
							{
								OFFSET 0.000000 0.100000 0.000000
							}
						}
					}
				}
			}
		}
	}
}
MOTION
Frames: 16
Frame Time: 0.041667
0.000000 0.000000 0.000000 -0.000000 0.000000 -0.000000 -0.000000 0.000002 -0.000001 -0.000001 0.003012 0.000002 -0.000001 0.000001 -0.000004 0.000001 -0.000004 -0.000005 -0.000000 -0.000001 0.000004 0.000003 -0.000002 -0.000006 0.000001 -0.000002 -0.000001 -0.000001 -0.000004 0.000001 0.000003 0.000003 -0.000010 -0.000007 -0.000005 -0.000001 0.000007 0.000009 0.000004 0.000000 0.000003 0.000002 -0.000000 -0.000007 -0.000002 0.000009 0.000005 0.000003 0.000008 -0.000003 -0.000002 0.000003 -0.000005 -0.000012 -0.000004 -0.000000 0.000004 0.000001 -0.000005 -0.000004 0.000002 -0.000003 0.000007 0.000002 0.000013 -0.000001 0.000006 -0.000006 0.000002 0.000009 0.000000 0.000002 -0.000002 0.000002 -0.000000 
0.000000 0.000000 0.000000 -0.000000 0.000000 -0.000000 -0.000000 0.000002 -0.000001 -0.000001 0.003012 0.000002 -0.000001 0.000001 -0.000004 0.000001 -0.000004 -0.000005 -0.000000 -0.000001 0.000004 0.000003 -0.000002 -0.000006 0.000001 -0.000002 -0.000001 -0.000001 -0.000004 0.000001 0.000003 0.000003 -0.000010 -0.000007 -0.000005 -0.000001 0.000007 0.000009 0.000004 0.000000 0.000003 0.000002 -0.000000 -0.000007 -0.000002 0.000009 0.000005 0.000003 0.000008 -0.000003 -0.000002 0.000003 -0.000005 -0.000012 -0.000004 -0.000000 0.000004 0.000001 -0.000005 -0.000004 0.000002 -0.000003 0.000007 0.000002 0.000013 -0.000001 0.000006 -0.000006 0.000002 0.000009 0.000000 0.000002 -0.000002 0.000002 -0.000000 
-0.707170 0.000000 -4.197410 -0.000000 0.000000 -0.000000 -0.992150 1.635226 0.241916 0.015589 0.003012 -0.011836 0.234418 -0.360201 -0.270605 0.351529 -0.457281 -0.397102 0.255991 -0.284115 -0.284038 0.105532 -0.308986 0.393213 -0.065670 -0.650637 0.673379 0.311639 -0.313848 -0.222559 1.879117 -0.121630 0.947691 -0.108483 0.285681 -0.197869 -0.290099 -0.039945 0.320583 -0.663341 0.083380 0.546064 -0.525186 -0.055515 0.450119 -0.719921 -1.226567 -2.502179 0.961448 0.815716 -0.880034 -2.348883 -1.773042 3.171302 -0.652550 0.196357 -2.378494 4.460376 -0.726269 -1.104344 -0.564634 -0.026875 0.148821 2.390734 -3.414568 3.903462 -4.623934 -2.621310 -2.743767 6.602377 4.316066 0.025063 5.946854 0.156794 3.472363 
-1.682151 0.000000 -8.852500 -0.000000 0.000000 -0.000000 -1.579495 3.621186 0.156815 0.032955 0.006450 -0.024921 0.387490 -0.767129 -0.321085 0.600834 -0.996149 -0.488152 0.451552 -0.634674 -0.360659 0.229321 -0.612976 0.663382 -0.028002 -1.280630 1.134865 0.637878 -0.653892 -0.448828 2.993987 -0.894536 1.389774 -0.174988 0.462286 -0.319805 -0.298396 -0.105903 0.131279 -1.098704 -0.071515 0.955401 -1.276879 -0.277440 0.560199 -1.413831 -2.303039 -4.769494 1.288905 0.692937 -1.389450 -4.453246 -3.266060 6.751886 -1.722183 0.583968 -6.344501 7.729926 -1.355476 0.760624 -0.118919 -0.006998 -1.353669 2.750642 -3.474201 2.130298 -2.851779 -1.651585 -1.676111 6.296083 4.097289 0.507080 9.350873 0.392081 5.299225 
-6.491871 0.000000 -18.883499 -0.000000 0.000000 -0.000000 -1.301977 6.749773 -0.522250 0.070901 0.013379 -0.053448 0.267631 -1.413200 -0.060783 0.504128 -1.898342 -0.150623 0.436783 -1.257856 -0.147321 0.574975 -0.805998 1.261924 0.245807 -1.805296 2.285047 0.752486 -1.009641 -0.450404 3.029787 -3.341108 1.756466 -0.119988 0.316181 -0.218963 0.602344 -0.423272 -1.066470 -1.805047 -0.035933 1.557655 -1.962746 -1.499289 -0.088268 -2.074361 -3.246912 -6.821151 1.345258 -0.750915 -1.405629 -8.453723 -5.403065 13.200948 -4.159904 1.806953 -15.827573 6.550557 0.446582 16.179526 10.794066 -1.300168 -14.318867 0.712107 7.562743 -11.916594 12.511213 8.525090 6.603488 -7.703826 -1.091122 3.061127 7.946426 0.247446 4.890185 
-11.435302 0.000000 -24.647400 -0.000000 0.000000 -0.000000 -0.388454 6.947525 -0.848604 0.090305 0.017770 -0.068144 0.072437 -1.251819 0.102838 0.221098 -1.694039 0.087684 0.237533 -1.138631 0.023616 0.559397 -1.070013 1.656390 0.007981 -2.365172 2.900542 0.256256 -1.405906 0.184963 2.646475 -4.751130 1.562495 -0.104770 0.275845 -0.191079 1.227061 -0.518951 -1.648870 -1.962138 -0.540905 1.802576 -1.926928 -1.700374 -0.342646 -2.060769 -3.228189 -6.779851 1.155507 -0.850905 -1.266018 -10.287401 -4.060537 14.050035 -4.720250 2.164199 -18.127650 -4.615287 -2.794338 31.489426 10.490945 -0.362489 -10.435213 1.358844 8.531280 -15.636393 19.102285 13.759028 9.460954 -9.185168 -1.489675 1.015948 7.417943 0.190145 4.858866 
-11.034503 0.000000 -31.876699 -0.000000 0.000000 -0.000000 0.827565 6.279916 -1.203302 0.109558 0.021697 -0.082652 -0.135407 -0.672005 0.328048 -0.119235 -0.914896 0.431442 -0.028574 -0.634371 0.277347 0.364860 -1.650961 1.917057 -0.496217 -3.457130 3.136377 -0.485771 -2.215987 1.195333 2.142089 -6.204059 0.694788 -0.095202 0.250533 -0.173582 1.776971 -0.492411 -2.202005 -1.694923 -1.981514 1.876073 -2.051618 -1.217894 -0.227904 -1.985719 -3.124401 -6.551190 0.552283 -0.568387 -1.184318 -11.214531 0.526476 13.222844 -4.701142 2.151480 -18.048234 -20.209674 -14.000663 43.786926 0.758788 0.094700 4.644728 2.415667 5.510145 -17.082865 24.049376 17.938826 11.253124 -2.952716 -4.708276 -2.605136 6.805685 0.124127 4.821940 
-10.152503 0.000000 -39.319801 -0.000000 0.000000 -0.000000 1.474797 4.789077 -1.826559 0.128012 0.025495 -0.096602 -0.227533 0.258329 0.613912 -0.333803 0.357757 0.875699 -0.232755 0.209540 0.606006 0.231450 -2.398920 1.799994 -0.730188 -4.797446 2.715087 -1.240398 -3.410466 2.316042 1.876043 -7.005553 -0.968903 0.053129 -0.138837 0.096456 2.197278 -0.493677 -2.516966 -1.305364 -4.009284 1.959800 -2.155187 -0.578020 0.526513 -1.940190 -3.060958 -6.411863 -0.041439 0.103434 -1.178879 -10.525158 -2.217227 12.713237 -4.298802 1.892580 -16.392580 -19.772108 -12.452220 39.116790 0.426357 -0.015250 5.145460 3.253315 3.538267 -17.398345 26.416656 19.993108 11.991071 6.074244 -9.760409 -6.807312 8.200488 -0.069600 3.396681 
-9.270594 0.000000 -46.826000 -0.000000 0.000000 -0.000000 2.218571 3.554725 -2.476317 0.145259 0.029114 -0.109632 -0.522737 0.776926 0.838676 -0.789878 1.040983 1.224846 -0.571699 0.643797 0.860065 0.345729 -2.665345 1.717403 -0.490251 -5.291902 2.587650 -1.518797 -3.968354 2.755767 1.464112 -6.879370 -1.987199 0.245775 -0.636465 0.443777 2.474881 -0.474395 -2.758146 -0.920956 -5.031954 1.849417 -1.906471 -0.087992 1.831099 -1.906870 -3.014365 -6.309693 -0.249100 0.514076 -1.212278 -8.176879 -2.995470 11.583810 -3.602548 1.481798 -13.590950 -15.626764 -7.877112 32.283477 0.893061 0.149009 4.203616 4.380302 2.817361 -17.386812 25.871520 19.517723 11.828297 11.115591 -10.498660 -7.552832 -2.876205 0.295086 11.031245 
-8.869714 0.000000 -54.244801 -0.000000 0.000000 -0.000000 3.992978 2.356393 -3.632196 0.378130 0.074038 -0.285147 -1.715302 0.558117 1.255027 -2.421297 0.660974 1.837484 -1.651765 0.295067 1.283614 0.905991 -1.959921 1.531066 0.731131 -4.031285 2.727326 -1.492432 -2.683887 2.367512 1.723902 -6.420717 -3.092502 0.275839 -0.713313 0.497645 2.158551 -0.247189 -2.494244 -0.342676 -3.885344 1.157879 -0.180669 0.150461 4.151592 -1.669710 -2.677365 -5.575535 -0.700538 -0.106005 -0.834682 -0.260213 0.770833 7.552138 -1.987197 0.693193 -7.342392 -6.917712 -2.536408 24.401027 5.881444 -0.411084 1.851948 6.977451 7.843980 -17.234647 19.539052 14.120532 9.632092 -7.784866 -7.199626 -2.607592 -23.496179 -4.876854 12.920775 
-11.536605 0.000000 -61.272202 -0.000000 0.000000 -0.000000 4.678547 2.354707 -3.487108 0.547644 0.106689 -0.413014 -2.285790 0.297635 1.341824 -3.194794 0.291336 1.967066 -2.156937 0.003814 1.372342 0.965129 -1.778148 1.059706 1.059326 -3.603597 1.992918 -0.981333 -2.548398 1.802224 1.554882 -6.219426 -3.565038 0.051839 -0.135488 0.094127 1.831106 -0.277652 -2.122557 -0.129236 -3.115721 0.821788 0.758570 0.092405 4.048876 -1.248914 -2.055601 -4.241827 -1.068197 -0.664718 -0.378759 4.211221 1.011723 5.073690 -1.912020 0.661655 -7.058636 -2.555251 -3.104746 23.078294 2.284266 0.001010 1.853193 6.288639 9.662694 -17.120229 18.124081 12.955356 9.069040 -24.213215 -9.931376 -2.725465 -14.762771 -2.475216 4.959687 
-14.861705 0.000000 -67.563904 -0.000000 0.000000 -0.000000 5.232446 2.610935 -2.883086 0.404401 0.079195 -0.304968 -2.643320 0.125673 1.272979 -3.663509 -0.016398 1.869523 -2.461146 -0.227751 1.305412 0.851538 -1.828439 0.339456 1.112664 -3.529447 0.689051 -0.102003 -3.045658 1.054961 0.422869 -5.713017 -3.701579 -0.236771 0.627398 -0.433539 1.705076 -0.515392 -1.888419 0.113940 -2.564646 0.502505 1.276521 -0.029751 3.115064 -0.590529 -1.014965 -2.064691 -1.200123 -0.995941 0.107939 8.635007 0.144539 2.579616 -2.269893 0.815726 -8.414379 2.350717 -4.254628 22.180034 -9.257571 0.572949 3.142729 3.444077 8.656142 -16.759153 19.019804 13.690914 9.428385 -35.948515 -11.236533 -4.568378 -1.313838 -0.450898 3.079154 
-17.977306 0.000000 -73.600700 -0.000000 0.000000 -0.000000 4.528425 2.258785 -2.508600 0.196490 0.038624 -0.148177 -2.455969 0.045531 1.309540 -3.375155 -0.177818 1.903836 -2.257470 -0.323654 1.323675 0.656619 -1.600100 -0.281908 1.028249 -2.974960 -0.450122 -1.096188 -1.252670 1.535675 -0.094655 -7.176038 -4.607176 -0.669857 1.813539 -1.243127 1.734849 -0.662965 -1.745997 0.603061 -1.439444 -0.159108 0.777681 -0.533502 1.880838 0.289904 0.531076 1.059752 -1.397702 -0.838058 0.569151 13.740517 2.669879 0.682222 -2.615067 0.973987 -9.734801 4.014980 -3.691784 26.221427 -17.230013 0.666435 -6.818898 0.334211 8.919516 -16.507242 20.459593 14.887615 9.984818 -39.811742 -10.853077 -5.115321 1.516300 -0.298318 3.883521 
-21.101006 0.000000 -79.272202 -0.000000 0.000000 -0.000000 3.360032 1.309791 -2.157174 0.196215 0.038767 -0.148002 -2.056316 0.188961 1.279118 -2.837143 0.063732 1.858988 -1.905617 -0.132594 1.290932 0.490426 -1.212496 -0.685499 0.959366 -2.176071 -1.166579 -1.772600 0.113473 1.836015 -0.591935 -7.441205 -4.567718 -0.850025 2.322647 -1.586782 1.307650 -0.866505 -1.421863 0.884428 -0.719902 -0.567110 -0.046925 -0.831411 0.604067 0.965882 1.869546 3.675478 -1.759720 -0.737234 1.129873 16.366530 5.870815 -0.570298 -2.361895 0.856968 -8.765098 -2.563161 -3.553819 23.541154 -14.049321 0.343306 -11.938413 -3.181303 9.881664 -15.440575 21.166780 15.481488 10.248343 -38.341984 -10.383872 -4.821251 1.649201 -0.502987 4.810834 
-27.044107 0.000000 -90.700699 -0.000000 0.000000 -0.000000 1.103916 -0.892616 -1.584062 0.181487 0.035470 -0.136845 -0.995951 0.609367 0.812524 -1.426037 0.771639 1.200729 -0.993514 0.427997 0.841715 0.495387 -0.179308 -0.591907 1.154920 -0.329445 -0.839783 -0.954818 0.628296 0.804911 0.370482 -2.793190 -1.571844 -0.289636 0.769422 -0.531153 -0.688824 -0.782529 0.243186 0.921467 0.058424 -0.793220 -1.289184 -0.379480 -0.332935 1.085264 2.122613 4.161948 -1.499208 -0.359816 1.302349 9.443719 2.341150 -1.451814 -0.280768 0.080876 -1.020013 -7.486124 0.246279 5.405309 -2.539781 -0.142386 -1.057673 -5.872623 11.462071 -9.205282 11.914264 8.073886 6.320943 -18.328536 -5.457450 0.479722 0.864508 0.445176 -0.332410 
-28.895708 0.000000 -95.977798 -0.000000 0.000000 -0.000000 0.260692 -0.872867 -0.838395 0.165962 0.032407 -0.125139 -0.440937 0.402995 0.380059 -0.650410 0.555369 0.568325 -0.464108 0.331905 0.402023 0.368017 0.065252 -0.272608 0.825769 0.084169 -0.308160 -0.328767 0.407302 0.213214 0.738505 -0.542764 -0.392068 -0.020543 0.053844 -0.037349 -0.893871 -0.365515 0.595494 0.582243 0.235412 -0.551594 -1.019066 -0.037595 -0.095020 0.606389 1.138970 2.257018 -0.646033 -0.028066 0.649872 4.128658 -0.179248 -1.169145 0.179509 -0.048884 0.649698 -2.143786 0.036145 0.158749 -2.145466 -0.130964 2.200927 -3.553113 7.429861 -4.584671 4.306532 2.704623 2.421962 -6.492188 -1.900778 2.013076 0.437467 0.549031 -2.183302 
